<?xml version="1.0"?>

<!-- Generator: Adobe Illustrator 19.0.0, SVG Export Plug-In . SVG Version: 6.00 Build 0)  -->
<svg xmlns="http://www.w3.org/2000/svg" xmlns:xlink="http://www.w3.org/1999/xlink" version="1.1" id="Layer_1" x="0px" y="0px" viewBox="0 0 470 470" style="enable-background:new 0 0 470 470;" xml:space="preserve" width="512" height="512">
<g>
	<g>
		<g>
			<path d="M462.5,248.75h-40.954c-14.069-29.536-44.211-50-79.046-50h-20.779c-2.99-14.672-14.573-26.255-29.245-29.245V153.75h2.5     c4.142,0,7.5-3.358,7.5-7.5c0-4.142-3.358-7.5-7.5-7.5h-2.5V36.25c0-4.142-3.358-7.5-7.5-7.5h-100c-4.142,0-7.5,3.358-7.5,7.5     v102.5h-2.5c-4.142,0-7.5,3.358-7.5,7.5c0,4.142,3.358,7.5,7.5,7.5h2.5v15.755c-14.672,2.99-26.255,14.573-29.245,29.245H127.5     c-34.835,0-64.977,20.464-79.046,50H7.5c-4.142,0-7.5,3.358-7.5,7.5v60c0,4.142,3.358,7.5,7.5,7.5H40v30     c0,48.248,39.252,87.5,87.5,87.5h215c48.248,0,87.5-39.252,87.5-87.5v-30h32.5c4.142,0,7.5-3.358,7.5-7.5v-60     C470,252.108,466.642,248.75,462.5,248.75z M40,308.75H15v-15h25V308.75z M40.325,278.75H15v-15h27.938     C41.647,268.599,40.763,273.612,40.325,278.75z M192.476,43.75h85v95h-85V43.75z M192.476,153.75h85v15h-85V153.75z      M184.976,183.75h100c9.778,0,18.114,6.271,21.21,15h-142.42C166.862,190.021,175.199,183.75,184.976,183.75z M415,353.75     c0,39.977-32.523,72.5-72.5,72.5h-215c-39.977,0-72.5-32.523-72.5-72.5v-67.5c0-9.484,1.849-18.539,5.175-26.849     c0.139-0.298,0.265-0.604,0.364-0.922C71.46,232.245,97.357,213.75,127.5,213.75h215c30.148,0,56.049,18.502,66.966,44.744     c0.097,0.311,0.221,0.61,0.356,0.902c3.328,8.312,5.178,17.369,5.178,26.854V353.75z M455,308.75h-25v-15h25V308.75z M455,278.75     h-25.325c-0.438-5.138-1.322-10.151-2.613-15H455V278.75z" fill="#FFFFFF"></path>
			<path d="M342.5,238.75H184.976c-4.142,0-7.5,3.358-7.5,7.5c0,4.142,3.358,7.5,7.5,7.5H342.5c17.92,0,32.5,14.58,32.5,32.5v67.5     c0,17.92-14.58,32.5-32.5,32.5h-215c-17.92,0-32.5-14.58-32.5-32.5v-67.5c0-17.92,14.58-32.5,32.5-32.5h27.476     c4.142,0,7.5-3.358,7.5-7.5c0-4.142-3.358-7.5-7.5-7.5H127.5c-26.191,0-47.5,21.309-47.5,47.5v67.5     c0,26.191,21.309,47.5,47.5,47.5h215c26.191,0,47.5-21.309,47.5-47.5v-67.5C390,260.059,368.691,238.75,342.5,238.75z" fill="#FFFFFF"></path>
		</g>
	</g>
</g>
<g>
</g>
<g>
</g>
<g>
</g>
<g>
</g>
<g>
</g>
<g>
</g>
<g>
</g>
<g>
</g>
<g>
</g>
<g>
</g>
<g>
</g>
<g>
</g>
<g>
</g>
<g>
</g>
<g>
</g>
</svg>
