<svg height="384pt" viewBox="-88 0 384 384" width="384pt" xmlns="http://www.w3.org/2000/svg"><path d="m192 144-128 224v-160h-48v-192h152l-40 128zm0 0" fill="fillColor"/><path d="m180.886719 6.519531c-3.015625-4.09375-7.796875-6.519531-12.886719-6.519531h-152c-8.832031 0-16 7.167969-16 16v192c0 8.832031 7.167969 16 16 16h32v144c0 7.257812 4.878906 13.601562 11.894531 15.464844 1.363281.367187 2.746094.535156 4.105469.535156 5.640625 0 10.992188-2.992188 13.886719-8.0625l128-224c2.832031-4.953125 2.816406-11.035156-.046875-15.96875-2.863282-4.9375-8.136719-7.96875-13.839844-7.96875h-42.238281l33.511719-107.222656c1.519531-4.867188.628906-10.152344-2.386719-14.257813zm-16.453125 153.480469-84.433594 147.753906v-99.753906c0-8.832031-7.167969-16-16-16h-32v-160h114.238281l-33.511719 107.222656c-1.511718 4.855469-.628906 10.152344 2.386719 14.25 3.015625 4.09375 7.796875 6.527344 12.886719 6.527344zm0 0" fill="strokeColor"/></svg>