<?xml version="1.0"?>

<!-- Generator: Adobe Illustrator 19.0.0, SVG Export Plug-In . SVG Version: 6.00 Build 0)  -->
<svg xmlns="http://www.w3.org/2000/svg" xmlns:xlink="http://www.w3.org/1999/xlink" version="1.1" id="Layer_1" x="0px" y="0px" viewBox="0 0 448 448" style="enable-background:new 0 0 448 448;" xml:space="preserve" width="512" height="512">
<g>
	<g>
		<path d="M408,288h-16v-40c0-22-18-40-40-40H232v-48h16c22,0,40-18,40-40V88c0-22-18-40-40-40h-48c-22,0-40,18-40,40v32    c0,22,18,40,40,40h16v48H96c-22,0-40,18-40,40v40H40c-22,0-40,18-40,40v32c0,22,18,40,40,40h48c22,0,40-18,40-40v-32    c0-22-18-40-40-40H72v-40c0-13.2,10.8-24,24-24h120v64h-16c-22,0-40,18-40,40v32c0,22,18,40,40,40h48c22,0,40-18,40-40v-32    c0-22-18-40-40-40h-16v-64h120c13.2,0,24,10.8,24,24v40h-16c-22,0-40,18-40,40v32c0,22,18,40,40,40h48c22,0,40-18,40-40v-32    C448,306,430,288,408,288z M88,304c13.2,0,24,10.8,24,24v32c0,13.2-10.8,24-24,24H40c-13.2,0-24-10.8-24-24v-32    c0-13.2,10.8-24,24-24H88z M248,304c13.2,0,24,10.8,24,24v32c0,13.2-10.8,24-24,24h-48c-13.2,0-24-10.8-24-24v-32    c0-13.2,10.8-24,24-24H248z M200,144c-13.2,0-24-10.8-24-24V88c0-13.2,10.8-24,24-24h48c13.2,0,24,10.8,24,24v32    c0,13.2-10.8,24-24,24H200z M432,360c0,13.2-10.8,24-24,24h-48c-13.2,0-24-10.8-24-24v-32c0-13.2,10.8-24,24-24h48    c13.2,0,24,10.8,24,24V360z" fill="#FFFFFF"></path>
	</g>
</g>
<g>
</g>
<g>
</g>
<g>
</g>
<g>
</g>
<g>
</g>
<g>
</g>
<g>
</g>
<g>
</g>
<g>
</g>
<g>
</g>
<g>
</g>
<g>
</g>
<g>
</g>
<g>
</g>
<g>
</g>
</svg>
