<?xml version="1.0"?>

<!-- Generator: Adobe Illustrator 19.0.0, SVG Export Plug-In . SVG Version: 6.00 Build 0)  -->
<svg xmlns="http://www.w3.org/2000/svg" xmlns:xlink="http://www.w3.org/1999/xlink" version="1.1" id="Capa_1" x="0px" y="0px" viewBox="0 0 60 60" style="enable-background:new 0 0 60 60;" xml:space="preserve" width="512" height="512">
<g>
	<g>
		<path d="M35,32c0-0.6-0.4-1-1-1h-5c-0.6,0-1,0.4-1,1v2.6c-2-1.9-5.4-4.6-9.9-4.6h-2.2c-1.6,0-2.9,1.3-2.9,2.9V33H2.9    C1.3,33,0,34.7,0,36.2v1.9c0,0.7,0.3,1.4,0.8,1.9C0.3,40.5,0,41.2,0,41.9v1.9c0,0.8,0.3,1.5,0.7,2C0.2,46.3,0,46.9,0,47.6v1.9    c0,0.7,0.2,1.2,0.7,1.7C0.3,51.7,0,52.3,0,52.9v2.2C0,56.7,1.3,58,2.9,58H15h0.1H28v1c0,0.6,0.4,1,1,1h5c0.6,0,1-0.4,1-1v-2h25v-2    H35V35h25v-2H35V32z M15,32.9c0-0.4,0.3-0.9,0.9-0.9h2.2c0.4,0,0.9,0.3,0.9,0.9v12.2c0,0.4-0.3,0.9-0.9,0.9h-2.2    c-0.4,0-0.9-0.3-0.9-0.9V35V32.9L15,32.9z M16,49.5c0,0.2,0,0.5-0.8,0.5h-0.1H2.9C2.8,50,2,50,2,49.5v-1.9C2,47.2,2.5,47,2.9,47    H11h2.7c0.5,0.6,1.3,1,2.2,1H16L16,49.5L16,49.5z M2,43.8v-1.9C2,41.5,2.5,41,2.9,41H11h2v4h-2H2.9C2.5,45,2,44.4,2,43.8z M2,36.2    C2,35.7,2.6,35,2.9,35H13v4h-2H2.9C2.5,39,2,38.7,2,38.1V36.2z M15,56H2.9C2.5,56,2,55.7,2,55.1v-2.2C2,52.5,2.5,52,2.9,52h12.2    c0.4,0,0.9,0.3,0.9,0.9v2.2C16,55.5,15.5,56,15,56L15,56z M17.8,56c0.1-0.3,0.2-0.6,0.2-0.9v-2.2c0-0.7-0.2-1.3-0.6-1.8    c0.4-0.4,0.6-1,0.6-1.6V48h0.1c1.6,0,2.9-1.3,2.9-2.9V32.9c0-0.2,0-0.3,0-0.5c3.8,1.1,6.4,4.2,7,5.1V56H17.8z M33,58h-3v-1V37.2    V33h3v1v22V58z" fill="#FFFFFF"></path>
		<rect x="37" y="50" width="3" height="2" fill="#FFFFFF"></rect>
		<rect x="42" y="50" width="3" height="2" fill="#FFFFFF"></rect>
		<path d="M60,4.9C60,3.4,58.6,2,57.1,2H45h-0.1H32V1c0-0.6-0.4-1-1-1h-5c-0.6,0-1,0.4-1,1v2H0v2h25v20H0v2h25v1c0,0.6,0.4,1,1,1h5    c0.6,0,1-0.4,1-1v-2.8c2,1.6,5.4,3.8,9.8,3.8c0,0,0,0,0.1,0h2.2c1.3,0,2.4-0.8,2.7-2h10.3c1.7,0,2.9-1.7,2.9-3.2v-1.9    c0-0.7-0.3-1.4-0.7-1.9c0.4-0.5,0.7-1.2,0.7-1.9v-1.9c0-0.8-0.3-1.5-0.7-2c0.5-0.5,0.7-1.1,0.7-1.8v-1.9c0-0.6-0.2-1.2-0.6-1.6    C59.8,8.4,60,7.8,60,7.1V4.9z M45,4h12.1C57.5,4,58,4.5,58,4.9v2.2C58,7.5,57.7,8,57.1,8H44.9C44.5,8,44,7.5,44,7.1V4.9    C44,4.5,44.3,4,45,4L45,4z M58,10.5v1.9c0,0.4-0.5,0.6-0.9,0.6H49h-2.2c-0.4-1.1-1.5-2-2.7-2H44v-0.5c0-0.2,0-0.5,0.8-0.5h0.1    h12.2C58,10,58,10.4,58,10.5z M58,16.2v1.9c0,0.4-0.3,0.9-0.9,0.9H49h-2v-4h2h8.1C57.5,15,58,15.6,58,16.2z M30,27h-3v-1V4V2h3v1    v19.8V27z M32,4h10.2C42.1,4.3,42,4.6,42,4.9v2.2c0,0.6,0.3,1.2,0.6,1.7c-0.4,0.4-0.6,1-0.6,1.7V11h-0.1c-1.6,0-2.9,1.3-2.9,2.9    v12.2c0,0.2,0,0.3,0.1,0.5c-3.7-1-6.3-3.4-7.1-4.2V4z M44.1,27H42h-0.1c-0.4,0-0.9-0.5-0.9-0.9V13.9c0-0.4,0.3-0.9,0.9-0.9h2.2    c0.4,0,0.9,0.5,0.9,0.9V25v1.1C45,26.5,44.7,27,44.1,27z M58,23.8c0,0.5-0.4,1.2-0.9,1.2H47v-4h2h8.1c0.4,0,0.9,0.3,0.9,0.9V23.8z    " fill="#FFFFFF"></path>
		<rect x="20" y="8" width="3" height="2" fill="#FFFFFF"></rect>
		<rect x="15" y="8" width="3" height="2" fill="#FFFFFF"></rect>
	</g>
</g>
<g>
</g>
<g>
</g>
<g>
</g>
<g>
</g>
<g>
</g>
<g>
</g>
<g>
</g>
<g>
</g>
<g>
</g>
<g>
</g>
<g>
</g>
<g>
</g>
<g>
</g>
<g>
</g>
<g>
</g>
</svg>
