<?xml version="1.0"?>

<!-- Generator: Adobe Illustrator 19.0.0, SVG Export Plug-In . SVG Version: 6.00 Build 0)  -->
<svg xmlns="http://www.w3.org/2000/svg" xmlns:xlink="http://www.w3.org/1999/xlink" version="1.1" id="Capa_1" x="0px" y="0px" viewBox="0 0 470 470" style="enable-background:new 0 0 470 470;" xml:space="preserve" width="512" height="512">
<g>
	<path d="M131.579,147.477c7.246,19.921,20.362,37.706,37.394,50.508C188.135,212.387,210.966,220,235,220   c24.034,0,46.866-7.613,66.027-22.016c17.031-12.802,30.148-30.587,37.394-50.508C358.674,146.984,375,130.369,375,110   s-16.326-36.984-36.578-37.477c-7.246-19.921-20.363-37.706-37.394-50.508C281.866,7.613,259.034,0,235,0   c-24.034,0-46.865,7.613-66.027,22.016c-17.031,12.802-30.148,30.587-37.394,50.508C111.327,73.015,95,89.631,95,110   S111.327,146.985,131.579,147.477z M235,205c-38.582,0-72.48-22.727-87.309-57.5h174.618C307.48,182.273,273.582,205,235,205z    M235,15c38.582,0,72.48,22.727,87.309,57.5H147.691C162.52,37.727,196.418,15,235,15z M132.5,87.5h4.478c0.05,0,196.03,0,196.03,0   c0.051,0,4.492,0,4.492,0c12.406,0,22.5,10.094,22.5,22.5s-10.094,22.5-22.5,22.5h-4.497c-0.01,0-195.976,0-195.976,0   c-0.05,0-4.527,0-4.527,0c-12.407,0-22.5-10.094-22.5-22.5S120.093,87.5,132.5,87.5z" fill="#FFFFFF"></path>
	<path d="M250.565,162.798c-10.058,2.922-21.07,2.922-31.131,0c-3.975-1.155-8.139,1.133-9.294,5.109   c-1.156,3.979,1.132,8.14,5.11,9.295C221.64,179.059,228.285,180,235,180c6.716,0,13.36-0.941,19.751-2.798   c3.978-1.155,6.265-5.317,5.109-9.295S254.543,161.641,250.565,162.798z" fill="#FFFFFF"></path>
	<path d="M162.5,117.5h145c4.143,0,7.5-3.357,7.5-7.5s-3.357-7.5-7.5-7.5h-145c-4.142,0-7.5,3.357-7.5,7.5   S158.358,117.5,162.5,117.5z" fill="#FFFFFF"></path>
	<path d="M346.729,282.117c-0.563-0.476-1.178-0.855-1.827-1.139C312.825,261.485,275.2,250.25,235,250.25   c-40.199,0-77.823,11.234-109.899,30.726c-0.65,0.285-1.267,0.664-1.83,1.141C62.979,319.598,22.75,386.434,22.75,462.5   c0,4.143,3.358,7.5,7.5,7.5h60c4.142,0,7.5-3.357,7.5-7.5s-3.358-7.5-7.5-7.5H37.891c2.473-65.875,37.408-123.586,89.234-157.569   l102.571,101.835c0.063,0.062,0.109,0.097,0.151,0.138c0.134,0.127,0.268,0.252,0.411,0.369c0.087,0.071,0.179,0.134,0.269,0.201   c0.106,0.079,0.209,0.16,0.319,0.233c0.106,0.071,0.215,0.132,0.324,0.197c0.101,0.06,0.2,0.123,0.304,0.179   c0.112,0.06,0.228,0.111,0.342,0.165c0.107,0.05,0.211,0.103,0.321,0.148c0.113,0.047,0.228,0.085,0.343,0.126   c0.116,0.041,0.23,0.085,0.348,0.121c0.115,0.035,0.232,0.061,0.349,0.09c0.12,0.03,0.239,0.063,0.361,0.088   c0.133,0.026,0.268,0.042,0.403,0.061c0.107,0.015,0.213,0.036,0.322,0.046c0.246,0.024,0.492,0.037,0.739,0.037   s0.493-0.013,0.739-0.037c0.109-0.011,0.215-0.031,0.322-0.046c0.134-0.019,0.268-0.035,0.402-0.061   c0.123-0.024,0.242-0.058,0.363-0.088c0.116-0.029,0.232-0.055,0.347-0.089c0.119-0.036,0.233-0.08,0.349-0.122   c0.114-0.041,0.229-0.079,0.342-0.125c0.11-0.045,0.215-0.098,0.322-0.149c0.114-0.054,0.229-0.105,0.341-0.164   c0.104-0.056,0.203-0.119,0.305-0.179c0.108-0.064,0.217-0.126,0.323-0.196c0.111-0.074,0.215-0.156,0.322-0.235   c0.089-0.066,0.179-0.128,0.266-0.198c0.147-0.12,0.286-0.25,0.424-0.381c0.038-0.036,0.08-0.068,0.118-0.106   c0.023-0.022,102.591-101.855,102.591-101.855c51.826,33.983,86.761,91.694,89.234,157.569H120.25c-4.142,0-7.5,3.357-7.5,7.5   s3.358,7.5,7.5,7.5h319.5c4.143,0,7.5-3.357,7.5-7.5C447.25,386.434,407.021,319.597,346.729,282.117z M242.5,375.949v-56.985   c0-4.143-3.357-7.5-7.5-7.5c-4.142,0-7.5,3.357-7.5,7.5v56.985l-87.106-86.482c26.044-14.296,55.642-22.879,87.106-24.061v23.558   c0,4.143,3.358,7.5,7.5,7.5c4.143,0,7.5-3.357,7.5-7.5v-23.558c31.464,1.182,61.063,9.766,87.106,24.061L242.5,375.949z" fill="#FFFFFF"></path>
</g>
<g>
</g>
<g>
</g>
<g>
</g>
<g>
</g>
<g>
</g>
<g>
</g>
<g>
</g>
<g>
</g>
<g>
</g>
<g>
</g>
<g>
</g>
<g>
</g>
<g>
</g>
<g>
</g>
<g>
</g>
</svg>
