<?xml version="1.0"?>

<!-- Generator: Adobe Illustrator 19.0.0, SVG Export Plug-In . SVG Version: 6.00 Build 0)  -->
<svg xmlns="http://www.w3.org/2000/svg" xmlns:xlink="http://www.w3.org/1999/xlink" version="1.1" id="Capa_1" x="0px" y="0px" viewBox="0 0 470 470" style="enable-background:new 0 0 470 470;" xml:space="preserve" width="512" height="512">
<g>
	<path d="M462.5,94.156H440v-2.5c0-20.298-16.822-36.812-37.5-36.812h-335c-20.678,0-37.5,16.514-37.5,36.812v2.5H7.5   c-4.142,0-7.5,3.358-7.5,7.5v306c0,4.142,3.358,7.5,7.5,7.5h168.472c3.113,0,5.903-1.923,7.01-4.833l27.253-71.646   c3.46-9.097,15.032-17.076,24.765-17.076s21.305,7.979,24.766,17.077l27.252,71.645c1.107,2.91,3.897,4.833,7.01,4.833H462.5   c4.142,0,7.5-3.358,7.5-7.5v-306C470,97.514,466.642,94.156,462.5,94.156z M45,91.656c0-12.027,10.093-21.812,22.5-21.812h335   c12.407,0,22.5,9.785,22.5,21.812v2.5H45V91.656z M455,400.156H299.2l-25.414-66.811c-5.704-14.997-22.741-26.744-38.786-26.744   s-33.082,11.748-38.785,26.744L170.8,400.156H15v-291h440V400.156z" fill="#FFFFFF"></path>
	<path d="M133.5,187.156c-37.22,0-67.5,30.28-67.5,67.5s30.28,67.5,67.5,67.5s67.5-30.28,67.5-67.5S170.72,187.156,133.5,187.156z    M133.5,307.156c-28.949,0-52.5-23.551-52.5-52.5s23.551-52.5,52.5-52.5s52.5,23.551,52.5,52.5S162.449,307.156,133.5,307.156z" fill="#FFFFFF"></path>
	<path d="M133.5,217.156c-4.142,0-7.5,3.358-7.5,7.5s3.358,7.5,7.5,7.5c12.407,0,22.5,10.093,22.5,22.5   c0,12.407-10.093,22.5-22.5,22.5s-22.5-10.093-22.5-22.5c0-4.142-3.358-7.5-7.5-7.5s-7.5,3.358-7.5,7.5   c0,20.678,16.822,37.5,37.5,37.5s37.5-16.822,37.5-37.5S154.178,217.156,133.5,217.156z" fill="#FFFFFF"></path>
	<path d="M336.5,187.156c-37.22,0-67.5,30.28-67.5,67.5s30.28,67.5,67.5,67.5s67.5-30.28,67.5-67.5S373.72,187.156,336.5,187.156z    M336.5,307.156c-28.949,0-52.5-23.551-52.5-52.5s23.551-52.5,52.5-52.5s52.5,23.551,52.5,52.5S365.449,307.156,336.5,307.156z" fill="#FFFFFF"></path>
	<path d="M336.5,217.156c-4.142,0-7.5,3.358-7.5,7.5s3.358,7.5,7.5,7.5c12.407,0,22.5,10.093,22.5,22.5   c0,12.407-10.093,22.5-22.5,22.5s-22.5-10.093-22.5-22.5c0-4.142-3.358-7.5-7.5-7.5s-7.5,3.358-7.5,7.5   c0,20.678,16.822,37.5,37.5,37.5s37.5-16.822,37.5-37.5S357.178,217.156,336.5,217.156z" fill="#FFFFFF"></path>
	<path d="M254.324,380.156h-38.647c-4.142,0-7.5,3.358-7.5,7.5s3.358,7.5,7.5,7.5h38.647c4.142,0,7.5-3.358,7.5-7.5   S258.466,380.156,254.324,380.156z" fill="#FFFFFF"></path>
</g>
<g>
</g>
<g>
</g>
<g>
</g>
<g>
</g>
<g>
</g>
<g>
</g>
<g>
</g>
<g>
</g>
<g>
</g>
<g>
</g>
<g>
</g>
<g>
</g>
<g>
</g>
<g>
</g>
<g>
</g>
</svg>
